<?xml version="1.0" encoding="UTF-8"?>
<svg id="Layer_1" data-name="Layer 1" xmlns="http://www.w3.org/2000/svg" viewBox="0 0 602.22 792">
  <defs>
    <style>
      .cls-1 {
        fill: #ff0;
      }
    </style>
  </defs>
  <path class="cls-1" d="M247.35,358.49c1.84,1.51,3.58,2.93,5.31,4.35,2.01,1.64,3.26,3.83,4.24,6.15,2.36,5.56,2.82,11.38,2.53,17.39-.41,8.45-2.86,16.46-4.85,24.56-.67,2.73-2.02,5.28-2.84,7.97-1.36,4.43-3.53,8.47-5.87,12.42-3.46,5.82-7.75,10.89-14.14,13.68-3.34,1.46-6.87,2.01-10.57,2.16-6.74,.28-13.07-1.71-19.5-3.03-8.44-1.73-16.8-3.84-25.16-5.91-5.06-1.25-10.06-2.77-15.11-4.11-1.2-.32-1.76-.96-2.01-2.16-1.66-7.76-3.07-15.57-3.42-23.51-.23-5.34-.42-10.69-.36-16.04,.07-5.86,.81-11.66,1.77-17.45,1.48-8.92,3.99-17.54,7.36-25.91,2.79-6.91,6.32-13.45,10.26-19.76,1.9-3.04,4.16-5.85,6.26-8.76,.34-.47,1.34-1.4,1.4-1.97,.08-.78-.76-1.19-1.32-1.67-1.45-1.24-2.89-2.49-4.32-3.75-2.87-2.52-5.7-5.08-8.42-7.75-5.36-5.25-10.34-10.93-14.29-17.32-4.34-7.02-7.36-14.84-8.91-22.94-1.48-7.68-2.07-15.77,1.38-23.03,.9-1.9,2.1-3.69,3.67-5.11,1.63-1.46,3.9-2.17,6.07-1.9,2.75,.35,5.45,2.36,6.29,5.05,1.21,3.88,3.31,7.38,5.65,10.67,1.22,1.71,2.64,3.32,4,4.91s2.85,3.26,4.35,4.82c.98,1.01,1.98,2,3,2.96,1.54,1.44,3.15,2.81,4.83,4.09,.85,.64,1.71,1.27,2.6,1.86s1.73,1.02,2.59,1.56c3.7,2.29,7.44,4.49,11.41,6.27s8.06,2.97,12.25,3.89c.19,.04,.38,.08,.57,.12,4.08,.86,8.85,1.66,12.76-.27,.25-.12,.5-.26,.74-.4,6.05-3.59,12.21-7.08,18.61-10,5.12-2.34,10.59-3.98,16.01-5.54,4.58-1.32,9.33-2.01,13.98-3.11,2.66-.63,4.38,.6,5.69,2.59,1.55,2.34,2.32,5.02,2.8,7.75,1.26,7.11,1.27,14.27,.73,21.46-.86,11.4-3.71,22.36-7.58,33.03-3,8.25-7.08,16-13.34,22.36-3.86,3.92-8.4,6.74-13.7,8.28-1.07,.31-2.13,.67-3.39,1.06Zm-27.73,23.75c-.16-.88-.24-2.15-.63-3.32-1.08-3.25-3.54-4.87-6.81-5.4-1.12-.18-2.25-.29-3.37-.46-2.7-.4-2.72-.41-3.57,2.26-2.36,7.38-4.39,14.85-5.74,22.48-.64,3.59-1.08,7.21-1.62,10.82-.11,.76-.06,1.4,.9,1.52,2.25,.28,4.49,.71,6.74,.8,4,.15,6.91-1.71,8.4-5.43,1.39-3.49,2.75-7.03,3.74-10.65,1.09-3.98,1.9-8.07,1.97-12.62Zm1.58-45.17c2.74,.66,5.18,.95,7.61,.79,1.52-.11,3.08-.62,4.48-1.26,3.78-1.73,6.23-4.94,8.14-8.42,2.75-5.02,5.18-10.21,7.58-15.41,.8-1.74,1.25-3.7,1.55-5.61,.36-2.32-.15-3.39-2.2-4.23-1.24-.51-2.68-.51-4.03-.77-2.05-.39-3.39,.35-4.45,2.21-2.05,3.61-4.43,7.03-6.51,10.63-3.66,6.32-7.2,12.7-10.77,19.07-.48,.86-.84,1.79-1.39,3Z"/>
  <path class="cls-1" d="M418.06,319.36c.12,.74,4.48,6,4.88,6.54,7.23,9.68,13.5,19.91,17.75,31.27,2.21,5.9,3.93,11.96,4.85,18.21,1.01,6.81,1.56,13.63,.73,20.5-.68,5.63-2.56,10.89-5.48,15.75-3.49,5.8-7.76,10.93-12.66,15.63-3.62,3.48-7.67,6.29-11.83,8.98-5.15,3.33-10.71,5.7-16.66,7.34-8.74,2.41-17.57,4.39-26.43,6.23-4.92,1.02-9.92,1.63-14.89,2.42-.81,.13-1.61,.32-2.42,.37-1.17,.07-1.48-.23-1.43-1.42,.08-1.63,.21-3.27,.38-4.89,.81-8.01,1.64-16.03,2.46-24.04,.8-7.7,1.62-15.4,2.41-23.1,1.18-11.47,1.46-22.98,1.66-34.51,.1-5.56-.49-11.06-.73-16.57-.21-4.87-1.45-9.7-2.29-14.54-3.12-18.05-8.82-35.28-16.65-51.81-2.23-4.72-4.68-9.34-7.03-14.01-.36-.72-.71-1.44-1.22-2.46,.84,.08,1.36,.1,1.87,.18,4.66,.72,9.3,1.57,13.97,2.14,2.26,.28,4.35,1.04,6.19,2.13,6.01,3.55,11.9,7.3,17.77,11.07,1.44,.92,2.81,1.55,4.55,1.42,1.3-.09,2.56,.1,3.83,.11s2.77-.38,4.07-.61c2.71-.49,5.4-1.13,8.04-1.92,5.28-1.58,10.39-3.74,15.19-6.43,2.79-1.56,5.48-3.31,8.04-5.22,8.38-6.26,15.4-14.33,20.49-23.47,.84-1.52,1.63-3.06,2.37-4.63,1.14-2.44,2.81-4.4,5.63-4.83,.89-.14,1.8-.1,2.7-.02,1.61,.14,3.02,.76,4.11,1.97,.82,.91,1.4,1.99,1.93,3.09,2.21,4.62,3.53,9.69,3.76,14.82,.1,2.4-.32,5-.67,7.39-.38,2.58-.93,5.13-1.64,7.63-1.42,5.03-3.45,9.88-5.94,14.47-1,1.84-2.08,3.63-3.22,5.38-5.68,8.69-12.96,16.24-20.9,22.88-2.55,2.14-4.93,4.38-7.52,6.47-.02,.01-.02,.04-.02,.08Zm-22.39,93.33c1.21-.2,2.17-.26,3.05-.53,1.67-.52,3.32-1.13,4.96-1.76,1.97-.76,3.26-2.19,4.2-4.09,1.04-2.12,1.17-4.37,1.25-6.62,.55-15.06-.78-29.91-4.84-44.49-3.71-13.31-9-25.92-16.23-37.67-1.55-2.52-3.75-4.74-5.97-6.73-1.77-1.59-4.1-2.34-6.87-1.55,.55,1.11,1.01,2.11,1.53,3.09,7.55,14.34,13.32,29.32,16.51,45.26,1.97,9.84,3.12,19.75,3.18,29.79,.04,7.3,.01,14.6-.75,21.88-.11,1.04-.02,2.1-.02,3.43Z"/>
  <path class="cls-1" d="M306.12,272.94c-.16-4.06-.29-7.27-.4-10.47-.05-1.43,.14-1.73,1.62-1.55,4.24,.52,8.46,1.18,12.7,1.74,.96,.13,1.42,.6,1.72,1.47,2.19,6.23,4.52,12.42,6.59,18.69,1.85,5.62,3.52,11.29,5.06,17,1.29,4.79,2.28,9.67,3.39,14.51,.62,2.7,1.27,5.39,1.78,8.11,.54,2.9,.97,5.83,1.39,8.76,.93,6.48,1.98,12.94,2.67,19.44,.64,6.06,.87,12.17,1.28,18.25,.16,2.32,.37,4.64,.51,6.96,.11,1.94,.16,3.89,.22,5.83,.13,4.15,.22,8.3,.36,12.45,.2,5.77,.47,11.55,.66,17.32,.12,3.89,.1,7.78,.22,11.68,.07,2.38,.29,4.77,.42,7.15,.1,1.75,.15,3.51,.25,5.26,.24,4.27,.49,8.53,.77,12.8,.08,1.19,.32,2.37,.37,3.56,.05,1.37-.23,1.68-1.58,1.83-3.37,.38-6.74,.87-10.13,1.04-8.04,.39-16.1,.62-24.14,.91-.38,.01-.76-.01-1.13,0-.82,.04-1.29-.26-1.37-1.16-.18-1.94-.47-3.87-.61-5.81-.28-4.08-.51-8.16-.71-12.24-.05-.96-.46-1.33-1.4-1.34-5.6-.1-11.2-.21-16.81-.35-.99-.03-1.54,.36-1.76,1.3-.07,.31-.22,.6-.26,.91-.58,3.66-1.16,7.33-1.71,11-.31,2.05-.56,4.11-.8,6.17-.12,1.02-.75,1.19-1.6,1.14-3.27-.19-6.53-.32-9.79-.59-4.89-.39-9.77-.87-14.65-1.33-1.75-.17-3.5-.38-5.24-.63-1.51-.22-1.72-.48-1.55-1.95,.23-2,.46-4,.85-5.97,.96-4.81,1.84-9.63,3.06-14.37,1.06-4.13,2.53-8.15,3.85-12.22,.81-2.51,1.63-5.02,2.54-7.5,.89-2.41,1.91-4.78,2.88-7.17,.73-1.81,1.45-3.62,2.21-5.41,1.6-3.76,3.19-7.53,4.84-11.27,2.06-4.66,4.19-9.29,6.27-13.93,.88-1.95,1.76-3.89,2.59-5.87,2.64-6.32,5.28-12.65,7.85-18.99,1.77-4.37,3.57-8.73,5.1-13.19,1.63-4.75,3.07-9.58,4.4-14.43,1.35-4.91,2.61-9.85,3.64-14.84,1.51-7.34,2.58-14.75,3-22.25,.22-3.77,.42-7.53,.59-10.46Zm-8.11,125.48c.42,.2,.59,.35,.75,.35,3.27,.07,6.54,.13,9.82,.18,1.18,.02,1.2-.79,1.28-1.66,.3-3.25,.62-6.51,.99-9.75,.49-4.37,1.06-8.74,1.55-13.11,.39-3.5,.71-7.01,1.06-10.51,.44-4.38,.9-8.76,1.29-13.14,.26-2.94,.45-5.89,.59-8.85,.09-1.83,.02-3.66,.02-5.77-.98,4.7-1.77,9.16-2.86,13.55-1.26,5.13-2.73,10.2-4.2,15.28-1.31,4.53-2.75,9.03-4.13,13.54-1.25,4.09-2.49,8.18-3.75,12.27-.5,1.62-1.06,3.22-1.58,4.84-.3,.93-.56,1.87-.83,2.78Z"/>
  <path class="cls-1" d="M239.63,541.38c-.8-.17-1.41-.21-1.94-.43-3.38-1.39-6.88-2.55-10.06-4.3-2.84-1.56-5.45-3.63-7.91-5.76-7.23-6.26-14.53-12.47-21.45-19.07-9.54-9.1-18.25-18.96-25.18-30.26-5.96-9.71-10.08-20.13-12-31.37-.51-2.97-.74-5.99-.93-9-.14-2.11,.42-2.5,2.46-1.96,5.35,1.42,10.7,2.88,16.04,4.33,2.42,.66,4.96,.98,7.14,2.36,.16,.1,.38,.1,.52,.22,1.39,1.13,2.92,2.13,4.12,3.43,4.55,4.94,7.52,10.79,9.38,17.2,3.53,12.22,9.35,23.36,16.17,34,4.58,7.16,9.51,14.1,14,21.31,3.23,5.17,6.04,10.6,8.94,15.97,.47,.87,.44,2,.71,3.33Zm-60.58-80.86c.21,.93,.37,1.89,.64,2.83,2.44,8.55,6.25,16.47,10.92,24,4.73,7.62,10.12,14.74,15.9,21.59,2.48,2.94,5.01,5.83,7.52,8.73,.75,.86,1.59,1.51,3,1.25-1.05-2.58-2.76-4.45-4.34-6.38-5.86-7.18-11.46-14.55-16.39-22.4-3.15-5.01-6.1-10.15-8.29-15.68-1.34-3.4-2.53-6.85-3.92-10.23-1.16-2.81-2.67-4.38-5.04-3.7Z"/>
  <path class="cls-1" d="M390.1,450.8c-1.74,10.7-3.43,21.07-5.16,31.71,.71-1.08,1.1-2.12,1.46-3.17,1.95-5.72,3.88-11.45,5.87-17.16,1.24-3.57,2.6-7.1,3.84-10.67,.58-1.66,1.73-2.6,3.35-3.01,3.35-.86,6.71-1.7,10.08-2.5,1.43-.34,1.88,.14,1.4,1.61-.46,1.44-1.1,2.81-1.63,4.23-3.09,8.25-6.14,16.53-9.28,24.76-3.06,8.02-6.83,15.7-11.23,23.07-7.41,12.44-16.39,23.71-25.88,34.59-3.31,3.8-6.72,7.51-10.11,11.24-.93,1.02-1.97,1.95-2.94,2.93-1.64,1.66-3.75,1.33-6.19,1.66,.51-.86,.75-1.34,1.05-1.78,4.33-6.19,8.77-12.3,12.96-18.58,2.48-3.71,4.7-7.61,6.79-11.55,2.43-4.61,4.75-9.29,6.82-14.07,1.58-3.66,2.69-7.52,4.01-11.3-.15-.06-.3-.12-.45-.19-.32,.65-.65,1.29-.96,1.94-1.64,3.47-3.15,7.01-4.94,10.4-2.49,4.73-5.09,9.4-7.8,14-5.97,10.16-12.72,19.8-19.46,29.46-1.52,2.18-3.53,2.87-5.93,3.05-.86,.07-1.13-.33-.82-1.18,.15-.41,.39-.79,.61-1.17,3.74-6.64,7.57-13.23,11.2-19.93,9.07-16.71,16.63-34.05,21.67-52.45,1.86-6.8,4.05-13.51,6.01-20.29,.56-1.92,1.68-2.95,3.65-3.31,3.22-.59,6.41-1.34,9.61-2,.61-.13,1.23-.19,2.38-.36Z"/>
  <path class="cls-1" d="M354.92,547.51c.98-1.32,1.67-2.33,2.45-3.28,1.63-1.99,.16-.26,1.79-2.26,4.41-5.42,8.82-10.84,13.18-16.29,4.17-5.21,8.28-10.46,12.41-15.7,1.17-1.48,2.28-3.01,3.45-4.49,.87-1.11,2-1.63,3.46-1.55,1.63,.09,3.28-.04,4.91,0,1.23,.04,1.52,.53,.87,1.55-.61,.95-1.35,1.82-2.08,2.68-4.02,4.68-8.08,9.33-12.08,14.02-.86,1.01-1.85,1.99-2.01,3.58,.43-.29,.87-.57,1.28-.89,4.57-3.52,8.45-7.75,12.06-12.19,3.94-4.84,6.25-10.46,7.02-16.65,.28-2.24,.33-4.51,.39-6.77,.09-3.59,.7-7.1,1.28-10.64,.9-5.55,3.22-10.59,5.29-15.69,1.28-3.17,3.24-6.09,5.11-8.98,1.53-2.37,3.24-4.64,5.1-6.76,1.77-2.01,2.92-3.18,4.11-4.53s.96-1.16,2.18-2.45,3.81-3.96,6.44-5.15c3.16-1.02,7.79,.11,8.6,.19s1.75,1.58,1.89,1.89,1.09,1.85,1.09,3.53,.11,4.16-.24,6.37-.26,1.83-.58,2.95c-1.9,7.01-4.53,13.75-7.85,20.2-.85,1.65-1.99,2.81-4.06,2.88-1.75,.05-3.49,.48-5.24,.62-3.24,.26-3.4-.03-2.1-2.94,1.24-2.76,2.43-5.53,3.56-8.33,.42-1.04,.72-2.16,.86-3.27,.07-.6-.31-1.26-.48-1.9-.61,.24-1.32,.35-1.8,.75-.57,.46-1.07,1.11-1.36,1.78-1.18,2.71-2.48,5.39-3.32,8.21-.68,2.27-.46,4.71-.17,7.11,.37,3.04,.81,6.1,.79,9.14-.03,4.51-1.34,8.76-3.4,12.8-4.18,8.19-10.62,14.46-17.19,20.64-9.72,9.14-20.6,16.76-31.53,24.31-3.88,2.68-5.83,3.59-8.37,4.73-1.74,.42-3.48,.68-5.68,.78Z"/>
  <path class="cls-1" d="M366.55,463.96c-.19,5.03-.99,9.02-2.06,12.99-2.66,9.86-5.85,19.54-9.68,29.01-2.39,5.9-4.9,11.73-8.1,17.26-2.21,3.81-4.2,7.75-6.51,11.49-2.78,4.49-5.21,5.99-8.18,10.36-1.55,2.28-3.26,4.46-4.9,6.68-.79,1.08-3.63,2.12-4.76,1.69-.24-.09-.52-.43-.54-.68-.12-1.12-.35-2.28-.19-3.37,1.35-8.89,2.08-14.93,3.65-23.77,1.18-6.63,2.9-13.16,4.11-19.78,1.78-9.78,3.36-19.6,4.95-29.42,.66-4.09,1.72-8.01,4.26-11.36,2.26-2.97,5.02-5.29,8.34-7.14,4.05-2.26,8.44-2.29,12.78-2.6,2.21-.16,4.78,1.44,5.55,3.71,.64,1.88,1.01,3.86,1.28,4.95Zm-32.24,63.82c.19,.06,.37,.11,.56,.17,.24-.26,.55-.48,.71-.79,.95-1.85,2.04-3.65,2.75-5.58,1.84-5.01,3.65-10.05,5.21-15.15,1.76-5.76,3.26-11.61,4.85-17.42,.53-1.94,1.01-3.89,1.46-5.85,.93-4.05,1.85-8.1,2.71-12.16,.13-.63,.04-1.38-.18-2-.5-1.37-1.46-1.55-2.35-.37-.66,.88-1.2,1.95-1.46,3.02-.68,2.74-1.13,5.54-1.74,8.3-.99,4.48-2.01,8.96-3.07,13.42-.65,2.75-1.39,5.48-2.14,8.21-.88,3.21-1.77,6.42-2.74,9.61-1.31,4.33-2.75,8.63-4.04,12.97-.35,1.16-.37,2.42-.53,3.63Z"/>
  <path class="cls-1" d="M265.88,502.12c.19,0,.38,0,.57,0,3.96,.03,4.12-.01,5.1,3.74,1.75,6.7,3.46,13.41,4.85,20.19,.95,4.61,1.43,9.32,1.91,14.01,.35,3.37,.42,4.19,.48,7.59,.03,1.37-.21,2.76-.49,4.1-.08,.36-.85,.87-1.22,.81-2.27-.38-4.29-.82-5.87-3.1-5-7.2-9.23-12.24-13.29-19.98-7.5-14.31-13.51-29.27-18.9-44.46-1.66-4.67-2.66-9.57-3.87-14.39-.61-2.43-.47-5.02,.38-7.27,1.2-3.2,3.18-5.84,6.83-7,2.95-.94,5.71-.17,8.55,.08,.62,.05,1.24,.21,1.86,.29,4.73,.61,8.1,3.09,10.19,7.36,1.28,2.62,2.13,5.36,2.45,8.26,.29,2.63,.69,5.24,.88,7.88,.16,2.2-.34,2.54-2.47,2.39-1.82-.12-3.65-.11-5.47-.18-2.15-.08-2.81-.61-3.15-2.72-.27-1.67-.31-3.38-.6-5.05-.27-1.55-.69-3.07-1.13-4.58-.17-.58-.55-1.12-.92-1.62-.52-.69-1.21-1.16-2.12-.88-.95,.29-1.19,1.12-1.12,1.97,.16,1.94,.27,3.9,.66,5.8,1.94,9.39,4.77,18.53,7.79,27.61,1.75,5.25,3.44,10.53,5.26,15.76,.85,2.43,1.94,4.77,2.93,7.15,.14,.35,.31,.72,.57,.97,.24,.22,.63,.37,.95,.37,.13,0,.38-.5,.36-.75-.11-1.25-.23-2.5-.46-3.74-1.12-6.03-3.21-11.77-5.24-17.54-1.01-2.88-.85-3.08,2.25-3.07,.5,0,1.01,0,1.51,0v.02Z"/>
  <path class="cls-1" d="M300.55,528.72c.17-.43,.43-.85,.51-1.3,1.06-6.52,1.12-12.96-.8-19.42-1.09-3.66-2.82-6.98-4.46-10.34-1.17-2.4-2.93-4.51-4.3-6.82-1.66-2.79-3.14-5.63-4.19-8.77-.98-2.95-1.29-5.86-1.34-8.88-.08-5.01,2.09-8.85,6.27-11.47,1.78-1.11,3.76-1.99,5.97-1.99,2.08,0,4.16,.03,6.23,0,5.82-.08,9.33,3.95,10.15,9.02,.52,3.22-.19,6.25-.29,9.37-.04,1.25-.84,1.93-2.11,1.97-2.26,.07-4.53,.08-6.8,.04-1.57-.03-2-.53-1.95-2.12,.05-1.57,.23-3.14,.29-4.71,.02-.62-.03-1.27-.22-1.86-.26-.8-.74-1.48-1.72-1.52-1.05-.04-1.72,.58-1.92,1.49-.45,1.98-.68,4.03,.49,5.85,1.49,2.32,3.01,4.64,4.73,6.79,3.12,3.89,5.23,8.28,6.45,13.05,.63,2.46,.78,5.08,.91,7.64,.14,2.75,.17,5.53-.03,8.27-.41,5.39-.75,10.78-1.96,16.08-.82,3.61-1.36,7.3-2.24,10.9-.83,3.41-.9,3.31-2.22,6.56-.9,2.22-1.41,3.52-2.92,5.97-.54,.88-.83,1.52-1.88,1.48-.75-.03-1.51-.02-2.26-.1-1.09-.12-1.72-.65-2.11-1.8-2.5-7.36-3.5-11.36-4.74-18.98-.9-5.59-1.57-11.21-2.28-16.83-.37-2.93-.59-5.87-.86-8.81-.17-1.86,.31-2.38,2.19-2.41,1.51-.02,3.02-.01,4.53,.01,2.02,.04,2.69,.68,2.73,2.74,.06,2.71-.06,5.42,.08,8.12,.19,3.63,.53,7.26,.86,10.89,.06,.64,.4,1.25,.61,1.87,.2,0,.39,0,.59,0Z"/>
  <path class="cls-1" d="M263.71,549.29c-.71-.14-1.44-.22-2.13-.41-3.27-.93-6.52-1.93-9.8-2.82-1.8-.49-3.17-1.47-4.22-2.98-2.77-3.98-5.61-7.91-8.33-11.92-4.67-6.88-9.35-13.75-13.88-20.72-5.39-8.3-10.48-16.77-14.74-25.72-4.06-8.52-7.11-17.37-8.36-26.76-.27-1.99-.42-4.01-.49-6.02-.08-2.33,.49-2.76,2.84-2.3,2.35,.46,4.68,1.02,7.03,1.47,5.26,1,10.52,1.96,15.78,2.94,.49,.09,.99,.18,1.48,.31,1.62,.47,1.87,.85,1.97,2.52,.16,2.63,.33,5.27,.58,7.9,.17,1.76-.12,2.25-1.88,2.11-2.82-.22-5.63-.59-8.45-.89-.31-.03-.62-.11-.94-.13-1.3-.07-1.64,.23-1.33,1.54,.61,2.64,1.31,5.25,2.04,7.86,.41,1.45,.92,2.88,1.44,4.3,.7,1.93,.84,1.98,2.85,2.07,2.14,.1,4.27,.29,6.41,.34,1.33,.03,2.08,.65,2.54,1.84,1.54,4,3.12,7.97,4.65,11.97,.55,1.43,.29,1.78-1.31,1.79-1.83,.01-3.65-.06-5.48-.06-.42,0-.85,.11-1.52,.2,.22,.63,.34,1.17,.58,1.63,3.83,7.24,7.69,14.46,11.51,21.7,.53,1.01,1.25,1.42,2.39,1.49,1.94,.11,3.87,.5,5.81,.59,1.6,.07,2.34,1,2.92,2.28,1.37,3.04,2.76,6.07,4.13,9.11,1.79,3.96,3.58,7.91,5.35,11.88,.35,.79,.6,1.62,.9,2.43-.11,.15-.23,.3-.34,.45Z"/>
  <path class="cls-1" d="M272.16,459.77c3.41,.21,6.49,.34,9.57,.61,1.9,.17,1.84,.39,1.82,2.27-.06,5.16-.08,10.32,.08,15.47,.11,3.45,.53,6.9,.83,10.34,.16,1.82,.33,3.63,.57,5.44,.4,3.05,.9,6.09,1.29,9.15,.46,3.61,.87,7.23,1.29,10.85,.65,5.62,1.32,11.25,1.92,16.87,.42,4,.74,8.02,1.11,12.03,.21,2.32,.44,4.64,.65,6.96,.06,.63,.1,1.26,.09,1.89-.03,1.95-.25,2.12-2.2,1.93-.88-.08-1.76-.12-2.64-.1-1.04,.02-1.68-.48-1.99-1.41-.3-.89-.6-1.79-.79-2.72-3.81-19.34-7.66-38.66-11.38-58.02-1.16-6.05-2.15-12.16-2.85-18.28-.42-3.66-.2-7.4-.17-11.11,.01-1.97,.28-2.16,2.21-2.17,.31,0,.63,0,.61,0Z"/>
  <path class="cls-1" d="M309.47,551.34c.34-2.24,.8-5.09,1.2-7.96,1.11-7.97,2.26-15.94,3.25-23.93,.53-4.23,.72-8.51,1.13-12.76,.29-3,.7-5.98,1.01-8.98,.2-2,.34-4,.47-6.01,.31-5.02,.46-10.05,.94-15.05,.46-4.75,1.22-9.48,1.93-14.2,.23-1.54,.97-2.05,2.84-2.2,2.44-.2,4.9-.33,7.34-.49,.75-.05,1.51-.09,2.26-.16,1.71-.14,2.05,.19,1.74,1.89-.64,3.47-1.41,6.91-1.94,10.39-1.03,6.84-1.89,13.71-2.9,20.55-.69,4.66-1.47,9.32-2.34,13.95-1.21,6.49-2.5,12.96-3.85,19.42-.78,3.75-1.73,7.47-2.64,11.2-1.09,4.46-2.23,8.9-3.36,13.35-.14,.55-.33,1.08-.49,1.62-.42,1.4-1.31,2.07-2.81,1.92-.56-.06-1.13,0-1.7,.07-1.98,.2-2.1,.08-2.08-2.61Z"/>
</svg>